<?xml version="1.0" encoding="utf-8"?>
<!-- Generator: Adobe Illustrator 23.0.1, SVG Export Plug-In . SVG Version: 6.00 Build 0)  -->
<svg version="1.1" id="Layer_1" xmlns="http://www.w3.org/2000/svg" xmlns:xlink="http://www.w3.org/1999/xlink" x="0px" y="0px"
	 viewBox="0 0 512 512" style="enable-background:new 0 0 512 512;" xml:space="preserve">
<g>
	<g>
		<path d="M252.3,447.9c0,24.8,20.2,45,45,45c24.8,0,45-20.2,45-45c0-24.8-20.2-45-45-45C272.5,402.8,252.3,423,252.3,447.9z
			 M277.4,447.9c0-11,8.9-19.9,19.9-19.9s19.9,8.9,19.9,19.9c0,11-8.9,19.9-19.9,19.9C286.3,467.7,277.4,458.8,277.4,447.9z"/>
	</g>
</g>
<g>
	<g>
		<path d="M94.3,447.9c0,24.8,20.2,45,45,45s45-20.2,45-45c0-24.8-20.2-45-45-45C114.5,402.8,94.3,423,94.3,447.9z M119.5,447.9
			c0-11,8.9-19.9,19.9-19.9c11,0,19.9,8.9,19.9,19.9c0,11-8.9,19.9-19.9,19.9C128.4,467.7,119.5,458.8,119.5,447.9z"/>
	</g>
</g>
<g>
	<g>
		<path d="M115.7,178.3c0,6.9,5.6,12.6,12.6,12.6h180.1c6.9,0,12.6-5.6,12.6-12.6s-5.6-12.6-12.6-12.6H128.3
			C121.3,165.8,115.7,171.4,115.7,178.3z"/>
	</g>
</g>
<g>
	<g>
		<path d="M125.5,243.6c0,6.9,5.6,12.6,12.6,12.6h160.5c6.9,0,12.6-5.6,12.6-12.6s-5.6-12.6-12.6-12.6H138.1
			C131.1,231,125.5,236.7,125.5,243.6z"/>
	</g>
</g>
<g>
	<g>
		<path d="M0.5,130.7l35.2,170.7c2.4,11.6,12.8,20.1,24.6,20.1h310.9l-7.4,35.9H62.6c-6.9,0-12.6,5.6-12.6,12.6
			c0,6.9,5.6,12.6,12.6,12.6h301.2c11.9,0,22.2-8.4,24.6-20.1l60.8-295.3l55.2-24c6.4-2.8,9.3-10.2,6.5-16.5
			c-2.8-6.4-10.2-9.3-16.5-6.5l-55.2,24c-7.5,3.3-13,10-14.6,18l-7.9,38.4H25.1c-7.6,0-14.7,3.4-19.5,9.3
			C0.9,115.6-1,123.3,0.5,130.7z M25.1,125.6l386.4,0l-35.2,170.7H60.3L25.1,125.6z"/>
	</g>
</g>
</svg>
