<svg viewBox="0 0 511 511.99992" xmlns="http://www.w3.org/2000/svg"><path d="m507.875 451.542969-87.738281-87.734375c-2.984375-2.984375-6.953125-4.628906-11.175781-4.628906-.804688 0-1.59375.078124-2.375.195312l-31.617188-31.617188c-.574219-5.144531-2.054688-17.289062-4.882812-34.09375 51.714843-9.652343 92.691406-51.875 99.210937-105.691406.5-4.113281-2.429687-7.851562-6.542969-8.347656-4.117187-.5-7.847656 2.429688-8.347656 6.542969-2.75 22.691406-12.480469 43.03125-26.882812 58.984375-17.90625-19.800782-27.6875-45.117188-27.6875-72.082032 0-26.964843 9.78125-52.285156 27.6875-72.085937 14.402343 15.953125 24.136718 36.296875 26.882812 58.988281.5 4.109375 4.230469 7.035156 8.347656 6.542969 4.113282-.5 7.042969-4.234375 6.542969-8.347656-7.445313-61.445313-59.796875-107.777344-121.78125-107.777344-23.785156 0-46.003906 6.8125-64.828125 18.574219-2.078125-2.410156-4.214844-4.785156-6.398438-7.089844-.019531-.023438-.039062-.042969-.054687-.058594-1.167969-1.230468-2.347656-2.457031-3.546875-3.660156l-.402344-.414062c-.058594-.058594-.117187-.117188-.175781-.171876-31.117187-31.046874-70.714844-51.007812-111.527344-56.214843-41.011719-5.230469-79.832031 4.773437-109.320312 28.167969-3.242188 2.574218-3.785157 7.292968-1.214844 10.539062 2.578125 3.242188 7.292969 3.785156 10.539063 1.210938 55.316406-43.890626 141.761718-32.25 201.082031 27.066406.023437.027344.050781.054687.078125.078125l.300781.3125c1.113281 1.117187 2.207031 2.25 3.273437 3.378906.019532.015625.035157.03125.050782.050781 1.71875 1.8125 3.40625 3.667969 5.058594 5.554688-2.574219 2.082031-5.0625 4.261718-7.457032 6.539062-.292968.222656-.570312.460938-.832031.734375-.164063.167969-.316406.347657-.460937.527344-1.257813 1.230469-2.484376 2.488281-3.6875 3.773437-2.667969-3.0625-5.441407-6.054687-8.316407-8.929687-.003906-.007813-.007812-.011719-.011719-.015625-.003906-.003906-.007812-.007812-.011718-.011719-14.574219-14.570312-30.957032-25.917969-48.046875-33.957031-.316407-.175781-.636719-.328125-.96875-.457031-26.597657-12.296875-54.851563-16.574219-80.617188-12.433594-.464843.03125-.925781.105469-1.382812.226563-21.183594 3.664062-40.625 13.0625-55.992188 28.429687-.011719.011719-.019531.023437-.03125.03125 0 .003906-.003906.003906-.003906.003906-.003906.003907-.003906.007813-.007813.011719-15.25 15.265625-24.617187 34.546875-28.328124 55.5625-.25.761719-.382813 1.558594-.382813 2.351562-3.984375 25.609376.324219 53.632813 12.523437 80.027344.128907.335938.285157.664063.464844.984375 8.042969 17.089844 19.394532 33.476563 33.964844 48.050781 27.164062 27.164063 61.4375 44.117188 96.503906 47.734376 4.667969.480468 9.277344.71875 13.8125.71875 6.71875 0 13.273438-.527344 19.625-1.558594.253906-.03125.503906-.074219.753906-.128906 21.777344-3.691407 41.125-13.386719 56.285157-28.527344 0-.003906.003906-.003906.003906-.003906 0-.003907.003906-.003907.003906-.003907.011719-.011719.023438-.019531.03125-.03125.191407-.191406.375-.398437.566407-.589843 4.359374 3.683593 8.976562 7.070312 13.824218 10.128906-.789062.832031-1.582031 1.65625-2.386718 2.464844-13.691407 13.691406-30.265626 23.570312-49.265626 29.371093-3.199218.980469-5.363281 3.953125-5.308593 7.296875.054687 3.347656 2.316406 6.25 5.546875 7.121094l1.195312.324219c.617188.171875 1.238282.339843 1.863282.503906 36.414062 9.605469 69.003906 14.824219 85.191406 17.078125.34375.050781.691406.074219 1.035156.074219 1.976562 0 3.886719-.78125 5.304688-2.199219l14.015624-14.015625c1.664063-1.664063 2.449219-4.011719 2.125-6.339844-1.046874-7.542969-2.273437-15.320312-3.640624-23.207031 3.164062.246094 6.359374.375 9.585937.375 2.570313 0 5.125-.089844 7.664063-.246094 2.644531 15.652344 4.128906 27.40625 4.765624 32.925782l-31.015624 31.011718c-22.226563-2.597656-145.53125-19.003906-226.085938-71.210937-.035156-.019531-.070312-.042969-.109375-.066407-12.179687-7.601562-23.582031-16.683593-33.894531-26.996093-59.449219-59.453125-71.003906-146-26.878906-201.320313 2.585937-3.238281 2.054687-7.957031-1.183594-10.539062-3.238282-2.582032-7.957032-2.050782-10.542969 1.1875-23.511719 29.472656-33.597656 68.332031-28.398437 109.410156 5.179687 40.949219 25.210937 80.675781 56.398437 111.867188 11.101563 11.101562 23.382813 20.882812 36.507813 29.078124 47.871093 31.011719 109.5625 49.449219 152.894531 59.460938 40.027343 9.246094 71.445312 13.132812 80.625 14.15625l31.621093 31.625c-.71875 4.792969.746094 9.859375 4.429688 13.542969l87.734375 87.734375c2.984375 2.984375 6.953125 4.628906 11.175781 4.628906s8.191406-1.644531 11.175782-4.628906l33.476562-33.472656c6.160156-6.164063 6.160156-16.191407 0-22.355469zm-295.476562-171.042969-36.574219-36.570312 28.964843-28.964844 46.890626 46.890625c-11.125 9.300781-24.476563 15.601562-39.28125 18.644531zm-115.519532-36.765625 28.769532-28.769531 28.964843 28.964844-23.597656 23.59375c-12.109375-6.195313-23.621094-14.1875-34.136719-23.789063zm-34.382812-44.757813 23.582031-23.582031 28.964844 28.964844-28.769531 28.769531c-9.714844-10.648437-17.660157-22.195312-23.777344-34.152344zm-15.105469-62.269531 28.082031 28.082031-19.5 19.5c-6.011718-15.847656-8.910156-32.058593-8.582031-47.582031zm20.765625-58.375 46.886719 46.886719-28.964844 28.960938-36.566406-36.566407c3.003906-14.527343 9.179687-27.957031 18.644531-39.28125zm49.84375-29.296875 36.613281 36.613282-28.964843 28.960937-46.894532-46.890625c11.3125-9.472656 24.726563-15.664062 39.246094-18.683594zm115.628906 36.738282-28.839844 28.835937-28.964843-28.960937 23.652343-23.652344c11.957032 6.117187 23.503907 14.058594 34.152344 23.777344zm-39.445312 39.445312-28.964844 28.960938-28.964844-28.960938 28.964844-28.964844zm42.511718 100.441406-21.296874-21.300781 11.109374-11.109375c1.894532 11.40625 5.367188 22.289062 10.1875 32.410156zm-11.847656-51.964844-20.058594 20.058594-28.964843-28.964844 28.964843-28.964843 21.109376 21.109375c-.695313 5.28125-1.0625 10.667968-1.0625 16.136718 0 .207032.007812.417969.011718.625zm-70.234375-8.90625-28.964843 28.960938-28.964844-28.960938 28.964844-28.964843zm-18.359375 39.570313 28.964844-28.964844 28.964844 28.964844-28.964844 28.964844zm131.3125 40.761719c-17.226562-19.097656-27.726562-44.371094-27.726562-72.050782 0-27.683593 10.5-52.957031 27.730468-72.050781 17.882813 19.792969 27.65625 45.097657 27.65625 72.050781-.003906 26.953126-9.773437 52.253907-27.660156 72.050782zm-38.019531-105.753906-14.152344-14.148438 28.832031-28.828125c1.382813 1.519531 2.746094 3.058594 4.066407 4.621094-8.339844 11.453125-14.753907 24.398437-18.746094 38.355469zm-44.757813-83.894532-19.570312 19.566406-28.148438-28.148437c15.5625-.34375 31.824219 2.554687 47.71875 8.582031zm-5.902343 226.503906c-11.21875-1.15625-22.359375-3.847656-33.171875-7.933593l19.503906-19.507813 28.058594 28.058594c-4.703125.09375-9.507813-.113281-14.390625-.617188zm147.308593 34.984376-8.722656 8.71875c-13.460937-1.957032-35.308594-5.578126-60.476562-11.425782 12.390625-6.277344 23.59375-14.398437 33.476562-24.28125 1.832032-1.832031 3.609375-3.730468 5.335938-5.671875 8.367187 3.90625 17.242187 6.894531 26.496094 8.835938 1.457031 8.082031 2.765624 16.070312 3.890624 23.824219zm-47.832031-61.421876c20.601563-22.605468 31.859375-51.589843 31.859375-82.46875 0-30.882812-11.257812-59.863281-31.859375-82.472656 18.722657-15.722656 42.847657-25.207031 69.152344-25.207031 26.175781 0 50.386719 9.414063 69.203125 25.183594-20.613281 22.609375-31.882812 51.605469-31.882812 82.496093 0 30.890626 11.269531 59.882813 31.882812 82.492188-18.8125 15.769531-43.027344 25.1875-69.203125 25.1875-26.304687 0-50.429687-9.488281-69.152344-25.210938zm89.429688 86.253907 26.003906 26.003906-25.496094 25.496094-26.003906-26zm129.472656 121.5-33.472656 33.472656c-.3125.3125-.828125.3125-1.140625 0l-87.734375-87.734375c-.3125-.316406-.3125-.828125 0-1.144531l33.472656-33.472657c.15625-.15625.347656-.234374.570313-.234374.222656 0 .414062.078124.570312.234374l87.734375 87.734376c.316406.316406.316406.828124 0 1.144531zm0 0"/></svg>